<svg width="101" height="91" viewBox="0 0 101 91" fill="none" xmlns="http://www.w3.org/2000/svg">
<path d="M5 1.60001H96C97.933 1.60001 99.5 3.16701 99.5 5.10001V86C99.5 87.933 97.933 89.5 96 89.5H5C3.067 89.5 1.5 87.933 1.5 86V5.10001C1.5 3.16701 3.06701 1.60001 5 1.60001Z" fill="#FFF4F9" stroke="#EC5151" stroke-width="3"/>
<path fill-rule="evenodd" clip-rule="evenodd" d="M15.677 24.7528C14.7743 25.6555 14.7743 27.119 15.677 28.0217C16.5797 28.9242 18.0432 28.9244 18.9458 28.0217L20.5813 26.386L28.7524 34.5574L22.2148 41.0952C21.312 41.9979 21.312 43.4614 22.2148 44.3641C23.1173 45.2669 24.5807 45.2669 25.4835 44.3641L28.7516 41.0958L56.5377 68.8825C59.8885 72.2335 64.7855 73.0965 68.9326 71.4716L71.247 73.7861C72.4574 74.9965 74.1718 75.3954 75.7143 74.9829L81.0542 80.323C81.9568 81.2257 83.4202 81.2257 84.323 80.323C85.2257 79.4202 85.2257 77.9568 84.323 77.054L78.9823 71.7131C79.3936 70.1712 78.9945 68.458 77.7849 67.2482L75.4706 64.934C77.0959 60.7865 76.2329 55.8891 72.8819 52.5379L45.0958 24.7512L48.3654 21.4816C49.2681 20.5789 49.2681 19.1154 48.3654 18.2127C47.4628 17.31 45.9992 17.31 45.0966 18.2127L38.5588 24.7506L30.3879 16.5794L32.0211 14.9459C32.9239 14.0433 32.9239 12.5797 32.0211 11.677C31.1186 10.7743 29.6551 10.7743 28.7524 11.677L15.677 24.7528ZM35.7337 27.5756L27.5628 19.4045L23.4063 23.561L31.5775 31.7323L35.7337 27.5756ZM42.2708 27.5764L31.5767 38.2708L40.3782 47.0723L51.0724 36.378L42.2708 27.5764ZM43.647 50.3413L48.5503 55.2449L52.2633 51.5319C53.1661 50.6291 54.6295 50.6291 55.5323 51.5319C56.435 52.4344 56.435 53.8981 55.5323 54.8008L51.8193 58.5138L55.0872 61.7819L58.8006 58.0685C59.7033 57.1658 61.1668 57.1658 62.0695 58.0685C62.9721 58.9712 62.9721 60.4347 62.0695 61.3374L58.3561 65.0508L59.3627 66.0574C61.5563 68.251 64.7623 68.8152 67.4767 67.7498L71.7493 63.4771C72.8146 60.7627 72.2505 57.5567 70.0569 55.3629L54.3411 39.6469L43.647 50.3413ZM75.0152 70.1366C74.9984 70.1146 74.9798 70.0935 74.9598 70.0733L73.3136 68.427C73.1746 68.5819 73.0307 68.7337 72.8819 68.8825C72.7329 69.0315 72.5809 69.1756 72.4258 69.3146L74.0721 70.961C74.0925 70.9812 74.1138 70.9998 74.136 71.0168C74.2369 70.8374 74.3638 70.6688 74.5164 70.5162C74.6686 70.3639 74.8366 70.2375 75.0152 70.1366Z" fill="#EC5151"/>
</svg>
